<svg width="110" height="110" viewBox="0 0 110 110" fill="none" xmlns="http://www.w3.org/2000/svg">
<path d="M108.565 55C108.565 85.1036 84.3699 109.5 54.5326 109.5C24.6952 109.5 0.5 85.1036 0.5 55C0.5 24.8964 24.6952 0.5 54.5326 0.5C84.3699 0.5 108.565 24.8964 108.565 55Z" stroke="#E0E0E0"/>
<path d="M98.6492 55C98.6492 79.5807 78.8931 99.5 54.5316 99.5C30.1702 99.5 10.4141 79.5807 10.4141 55C10.4141 30.4193 30.1702 10.5 54.5316 10.5C78.8931 10.5 98.6492 30.4193 98.6492 55Z" stroke="#4985FF"/>
<g clip-path="url(#clip0_74147_9)">
<path d="M73.7026 35H43.9577C43.5926 35 43.2967 35.2985 43.2967 35.6667V45.6666H44.6187V36.3333H73.0416V72.9999C73.048 73.3505 72.7798 73.6442 72.4329 73.6666C72.376 73.6666 72.3192 73.6619 72.2623 73.6606C72.1453 73.6573 72.0283 73.6546 71.9133 73.6426C71.9034 73.6426 71.8941 73.6426 71.8842 73.6386C69.7254 73.4006 68.0201 71.6823 67.7821 69.5053C67.7821 69.4959 67.7788 69.4859 67.7774 69.4766C67.7614 69.3182 67.7535 69.1591 67.7536 68.9999V67.6666C67.7536 67.2984 67.4577 66.9999 67.0926 66.9999H44.6187V55H43.2967V66.9999H38.0087C37.6436 66.9999 37.3477 67.2984 37.3477 67.6666V68.9999C37.3513 72.3121 40.0126 74.9963 43.2967 74.9999H72.4467C73.5194 74.9716 74.3719 74.0821 74.3636 72.9999V35.6667C74.3636 35.2985 74.0677 35 73.7026 35ZM43.2967 73.6666C40.7425 73.6637 38.6725 71.576 38.6697 68.9999V68.3333H66.4316V68.9999C66.4326 69.2198 66.4451 69.4394 66.4693 69.6579C66.4753 69.7159 66.4865 69.7719 66.4944 69.8293C66.5163 69.9906 66.5427 70.1513 66.5777 70.3093C66.5896 70.3646 66.6048 70.4193 66.6187 70.4746C66.659 70.6353 66.7046 70.7933 66.7575 70.9493C66.7727 70.9939 66.7886 71.0379 66.8051 71.0826C66.8653 71.2479 66.9333 71.4093 67.008 71.5686C67.0239 71.6013 67.0384 71.6353 67.0543 71.6653C67.1372 71.8342 67.2281 71.9983 67.3273 72.1579C67.3405 72.1793 67.3524 72.2013 67.3656 72.2246C67.4734 72.3948 67.5897 72.5595 67.714 72.7179L67.7351 72.7466C67.8794 72.9293 68.0339 73.1036 68.1978 73.2686C68.3402 73.4108 68.4878 73.5442 68.6407 73.6686L43.2967 73.6666Z" fill="#4985FF"/>
<path d="M56.5161 53.6667C56.6914 53.6667 56.8595 53.5963 56.9834 53.4713L59.6274 50.8047C59.8855 50.5443 59.8855 50.1223 59.6274 49.862L56.9834 47.1953C56.8595 47.0703 56.6914 47 56.5161 47H38.0081C36.1829 47 34.7031 48.4924 34.7031 50.3333C34.7031 52.1742 36.1829 53.6667 38.0081 53.6667H56.5161ZM56.3456 48.4373L58.2255 50.3333L56.3456 52.2293L55.8756 50.3333L56.3456 48.4373ZM39.9911 48.3333H55.009L54.6785 49.6667H41.3131V51H54.6785L55.009 52.3333H39.9911V48.3333ZM36.0251 50.3333C36.0251 49.2287 36.9129 48.3333 38.0081 48.3333H38.6691V52.3333H38.0081C36.9129 52.3333 36.0251 51.4379 36.0251 50.3333Z" fill="#4985FF"/>
<path d="M49.907 63.6666H69.7369C70.102 63.6666 70.3979 63.3681 70.3979 62.9999V43C70.3979 42.6318 70.1019 42.3334 69.7368 42.3335C69.5615 42.3335 69.3936 42.4037 69.2696 42.5287L49.4396 62.5286C49.1815 62.789 49.1816 63.2111 49.4398 63.4714C49.5637 63.5964 49.7317 63.6666 49.907 63.6666ZM69.0759 44.6093V46.3333H67.7539V47.6666H69.0759V49H67.7539V50.3333H69.0759V51.6666H67.7539V53H69.0759V54.3333H67.7539V55.6666H69.0759V57H67.7539V58.3333H69.0759V59.6666H67.7539V60.9999H69.0759V62.3333H67.7539V60.9999H66.4319V62.3333H65.11V60.9999H63.788V62.3333H62.466V60.9999H61.144V62.3333H59.822V60.9999H58.5V62.3333H57.178V60.9999H55.856V62.3333H54.534V60.9999H53.212V62.3333H51.5026L69.0759 44.6093Z" fill="#4985FF"/>
<path d="M59.4812 59.6667H65.7706C66.1356 59.6667 66.4316 59.3682 66.4316 59V52.6567C66.4315 52.2886 66.1356 51.9902 65.7704 51.9902C65.5952 51.9902 65.4272 52.0605 65.3033 52.1854L59.0139 58.5287C58.7557 58.7891 58.7558 59.2112 59.014 59.4715C59.138 59.5965 59.3059 59.6667 59.4812 59.6667ZM65.1096 54.2667V58.3334H61.0775L65.1096 54.2667Z" fill="#4985FF"/>
<path d="M65.1087 39H51.8887V40.3333H65.1087V39Z" fill="#4985FF"/>
<path d="M67.0922 41.6665H49.9062V42.9998H67.0922V41.6665Z" fill="#4985FF"/>
<path d="M49.9054 55.6665H45.9395V56.9998H49.9054V55.6665Z" fill="#4985FF"/>
<path d="M48.5835 58.3335H45.9395V59.6668H48.5835V58.3335Z" fill="#4985FF"/>
</g>
<defs>
<clipPath id="clip0_74147_9">
<rect width="39.6601" height="40" fill="white" transform="translate(34.7031 35)"/>
</clipPath>
</defs>
</svg>
