<svg width="31" height="30" viewBox="0 0 31 30" fill="none" xmlns="http://www.w3.org/2000/svg">
<g clip-path="url(#clip0_6_8)">
<path d="M11.9501 21.0235C11.8357 21.0235 11.7205 20.9845 11.6264 20.9052L8.39064 18.1762C8.27902 18.082 8.21484 17.9443 8.21484 17.799C8.21484 17.6539 8.2793 17.5162 8.39064 17.422L11.6264 14.693C11.8366 14.5155 12.1522 14.5407 12.3313 14.7488C12.5102 14.9572 12.4851 15.2698 12.2747 15.4469L9.48617 17.799L12.2747 20.151C12.4851 20.3284 12.5102 20.641 12.3313 20.8491C12.2323 20.9644 12.0916 21.0235 11.9501 21.0235Z" fill="#4985FF"/>
<path d="M18.3382 21.0235C18.1967 21.0235 18.0561 20.9644 17.9573 20.8491C17.7781 20.641 17.8035 20.3284 18.0137 20.151L20.8021 17.799L18.0137 15.4469C17.8035 15.2698 17.7781 14.9572 17.9573 14.7488C18.1362 14.5407 18.452 14.5155 18.6619 14.693L21.8977 17.422C22.0093 17.5162 22.0735 17.6539 22.0735 17.799C22.0735 17.9443 22.0093 18.082 21.8977 18.1762L18.6619 20.9052C18.5678 20.9845 18.4526 21.0235 18.3382 21.0235Z" fill="#4985FF"/>
<path d="M13.9989 23.0706C13.9646 23.0706 13.93 23.067 13.8951 23.0598C13.625 23.0034 13.452 22.7406 13.5089 22.473L15.5256 12.9894C15.5825 12.7219 15.8476 12.5505 16.118 12.6069C16.3881 12.6633 16.5611 12.9259 16.5042 13.1937L14.4875 22.6773C14.4378 22.9105 14.2302 23.0706 13.9989 23.0706Z" fill="#4985FF"/>
<path d="M26.931 28.2374H3.35745C1.50627 28.2374 0 26.7457 0 24.9119V5.09451C0 3.26097 1.50627 1.76904 3.35745 1.76904H26.931C28.7822 1.76904 30.2885 3.26097 30.2885 5.09451V24.9119C30.2885 26.7457 28.7822 28.2374 26.931 28.2374ZM3.35745 2.75961C2.05766 2.75961 1.00009 3.80711 1.00009 5.09451V24.9119C1.00009 26.1993 2.05766 27.2468 3.35745 27.2468H26.931C28.2308 27.2468 29.2884 26.1993 29.2884 24.9119V5.09451C29.2884 3.80711 28.2308 2.75961 26.931 2.75961H3.35745Z" fill="#4985FF"/>
<path d="M29.7884 9.69955H0.500045C0.223793 9.69955 0 9.47789 0 9.20427C0 8.93092 0.223793 8.70898 0.500045 8.70898H29.7884C30.0647 8.70898 30.2885 8.93092 30.2885 9.20427C30.2885 9.47789 30.0647 9.69955 29.7884 9.69955Z" fill="#4985FF"/>
<path d="M8.54339 7.32959C7.6711 7.32959 6.96094 6.62619 6.96094 5.76221C6.96094 4.89795 7.6711 4.19482 8.54339 4.19482C9.41596 4.19482 10.1258 4.89795 10.1258 5.76221C10.1258 6.62619 9.41596 7.32959 8.54339 7.32959ZM8.54339 5.18539C8.22249 5.18539 7.96103 5.44409 7.96103 5.76221C7.96103 6.08033 8.22249 6.33902 8.54339 6.33902C8.86457 6.33902 9.12575 6.08033 9.12575 5.76221C9.12575 5.44409 8.86457 5.18539 8.54339 5.18539Z" fill="#4985FF"/>
<path d="M3.68206 7.31445C2.80949 7.31445 2.09961 6.61133 2.09961 5.74707C2.09961 4.88281 2.80949 4.17969 3.68206 4.17969C4.55463 4.17969 5.26451 4.88281 5.26451 5.74707C5.26451 6.61133 4.55463 7.31445 3.68206 7.31445ZM3.68206 5.17025C3.36116 5.17025 3.0997 5.42923 3.0997 5.74707C3.0997 6.06519 3.36116 6.32389 3.68206 6.32389C4.00324 6.32389 4.26442 6.06519 4.26442 5.74707C4.26442 5.42923 4.00324 5.17025 3.68206 5.17025Z" fill="#4985FF"/>
<path d="M13.4064 7.34445C12.5341 7.34445 11.8242 6.64133 11.8242 5.77707C11.8242 4.91309 12.5341 4.20996 13.4064 4.20996C14.279 4.20996 14.9888 4.91309 14.9888 5.77707C14.9888 6.64133 14.279 7.34445 13.4064 7.34445ZM13.4064 5.20025C13.0855 5.20025 12.8243 5.45895 12.8243 5.77707C12.8243 6.09519 13.0855 6.35388 13.4064 6.35388C13.7276 6.35388 13.9888 6.09519 13.9888 5.77707C13.9888 5.45895 13.7276 5.20025 13.4064 5.20025Z" fill="#4985FF"/>
</g>
<defs>
<clipPath id="clip0_6_8">
<rect width="30.2885" height="30" fill="white"/>
</clipPath>
</defs>
</svg>
